<svg width="228" height="211" viewBox="0 0 228 211" fill="none" xmlns="http://www.w3.org/2000/svg">
<g id="Group 85">
<circle id="Ellipse 25" cx="114" cy="97" r="69.3165" fill="url(#paint0_linear_119_72)"/>
<g id="Vector" filter="url(#filter0_d_119_72)">
<path d="M114 23C73.1361 23 40 56.1361 40 97C40 137.864 73.1361 171 114 171C154.864 171 188 137.864 188 97C188 56.1361 154.864 23 114 23ZM116.553 54.3797C117.021 54.3797 117.489 54.3797 117.958 54.4032C128.613 54.8013 137.839 59.719 142.827 66.8848C144.841 69.7652 146.153 73.0203 146.597 76.4627C146.715 77.3291 146.761 78.219 146.761 79.1089C146.761 83.5582 145.333 87.7032 142.827 91.3095C142.944 90.3962 143.015 89.4595 143.015 88.5228C143.015 84.8462 142.078 81.357 140.392 78.219C138.753 75.1513 136.411 72.4348 133.53 70.1867C128.425 66.2057 121.634 63.7937 114.211 63.7937C105.804 63.7937 98.2399 66.8848 92.9943 71.8025C92.5728 71.1234 91.9873 70.4911 91.2848 69.976C90.6525 69.4842 89.9032 69.0861 89.0835 68.8051C93.8608 60.3044 104.375 54.3797 116.553 54.3797ZM58.0551 95.6184C58.0551 81.7316 67.7032 70.4677 79.6462 70.3038C79.7399 70.3038 79.8335 70.3038 79.9272 70.3038C82.6437 70.3038 85.2665 70.8892 87.6551 71.9196C88.4747 72.2709 89.2709 72.6924 90.0437 73.1608C90.3949 73.3715 90.7228 73.5823 91.0741 73.8165C91.9873 74.4487 92.8772 75.1513 93.6968 75.924C97.0221 79.0386 99.5279 83.2538 100.816 88.0779C98.5209 84.2842 94.9146 81.357 90.5589 79.8816C90.0905 79.7177 89.6222 79.5772 89.1538 79.4601C88.6386 79.3196 88.1 79.2025 87.5614 79.1089C87.1633 79.0386 86.7418 78.9684 86.3437 78.9449C85.6177 78.8747 84.8918 78.8278 84.1658 78.8278C82.6905 78.8278 81.2386 78.9918 79.857 79.2962C71.2861 81.193 64.893 88.6165 64.893 97.4684C64.893 105.477 70.1152 112.315 77.4215 114.961C76.1101 116.53 74.8924 118.193 73.7449 119.926C64.6823 116.835 58.0551 107.116 58.0551 95.6184ZM155.941 121.916C155.004 122.455 154.021 122.923 153.014 123.298C150.578 124.258 147.956 124.773 145.239 124.773C140.884 124.773 136.785 123.439 133.226 121.12C132.453 120.511 131.657 119.926 130.861 119.364C126.692 116.437 122.079 114.329 117.208 113.158C114.351 112.479 111.401 112.104 108.38 112.104C107.513 112.104 106.647 112.128 105.78 112.198C101.753 112.479 97.8418 113.392 94.1418 114.868C90.6994 116.249 87.4443 118.123 84.4 120.394C78.0772 125.172 72.7848 131.775 69.0146 139.597C70.6772 132.689 73.4171 126.296 76.9766 120.699C78.0772 118.989 79.2481 117.327 80.4892 115.781C83.9785 111.425 88.0298 107.702 92.5025 104.798C95.2424 103.018 98.1228 101.543 101.167 100.396C101.261 100.372 101.331 100.325 101.425 100.302C101.893 100.138 102.502 99.8804 102.97 99.7165L103.603 99.5525C106.998 98.4987 110.558 97.8665 114.211 97.6791H114.258C114.866 97.6557 115.499 97.6323 116.108 97.6323C117.63 97.6323 119.128 97.726 120.627 97.8665C124.421 98.2646 128.074 99.2013 131.54 100.559C132.032 100.747 132.5 100.958 132.992 101.168C134.467 101.801 135.896 102.527 137.301 103.323C137.909 103.674 138.518 104.025 139.104 104.4C139.596 104.775 140.111 105.103 140.649 105.407C142.499 106.461 144.607 107.046 146.832 107.046C154.419 107.046 160.578 100.185 160.578 91.731C160.578 84.2608 155.777 78.0551 149.431 76.6968C149.009 73.0905 147.651 69.6949 145.544 66.6975C159.056 66.8848 169.945 79.788 169.945 95.712C169.945 107.28 164.231 117.233 155.941 121.916Z" fill="white"/>
</g>
</g>
<defs>
<filter id="filter0_d_119_72" x="0" y="-17" width="228" height="228" filterUnits="userSpaceOnUse" color-interpolation-filters="sRGB">
<feFlood flood-opacity="0" result="BackgroundImageFix"/>
<feColorMatrix in="SourceAlpha" type="matrix" values="0 0 0 0 0 0 0 0 0 0 0 0 0 0 0 0 0 0 127 0" result="hardAlpha"/>
<feOffset/>
<feGaussianBlur stdDeviation="20"/>
<feComposite in2="hardAlpha" operator="out"/>
<feColorMatrix type="matrix" values="0 0 0 0 0.407843 0 0 0 0 0 0 0 0 0 0.815686 0 0 0 1 0"/>
<feBlend mode="normal" in2="BackgroundImageFix" result="effect1_dropShadow_119_72"/>
<feBlend mode="normal" in="SourceGraphic" in2="effect1_dropShadow_119_72" result="shape"/>
</filter>
<linearGradient id="paint0_linear_119_72" x1="183.316" y1="27.6835" x2="44.6835" y2="166.316" gradientUnits="userSpaceOnUse">
<stop offset="0.143048" stop-color="#8000FF"/>
<stop offset="0.858051" stop-color="#5A00B5"/>
</linearGradient>
</defs>
</svg>
